<?xml version="1.0" encoding="iso-8859-1"?>
<!-- Generator: Adobe Illustrator 19.0.0, SVG Export Plug-In . SVG Version: 6.00 Build 0)  -->
<svg version="1.1" id="Capa_1" xmlns="http://www.w3.org/2000/svg" xmlns:xlink="http://www.w3.org/1999/xlink" x="0px" y="0px"
	 viewBox="0 0 494.237 494.237" style="enable-background:new 0 0 494.237 494.237;" xml:space="preserve">
<path style="fill:#4DCFE0;" d="M352.131,291.527c0,34.482-16.718,65.306-42.318,84.114v0.522H184.424v-0.522
	c-25.6-19.331-42.318-49.633-42.318-84.114c0-57.992,47.02-105.012,105.012-105.012S352.131,233.535,352.131,291.527z"/>
<g>
	<path style="fill:#3A2C51;" d="M322.873,454.008h-151.51c-8.882,0-15.673-6.792-15.673-15.673s6.792-15.673,15.673-15.673h151.51
		c8.882,0,15.673,6.792,15.673,15.673S331.755,454.008,322.873,454.008z"/>
	<path style="fill:#3A2C51;" d="M448.261,360.49h-102.4c14.106-19.853,21.943-43.886,21.943-68.963
		c0-66.351-54.335-120.686-120.686-120.686s-120.686,54.335-120.686,120.686c0,25.078,7.837,49.11,21.943,68.963h-102.4
		c-8.882,0-15.673,6.792-15.673,15.673c0,8.882,6.792,15.673,15.673,15.673h402.286c8.882,0,15.673-6.792,15.673-15.673
		C463.935,367.282,457.143,360.49,448.261,360.49z M157.78,291.527c0-49.11,40.229-89.339,89.339-89.339
		s89.339,40.229,89.339,89.339c0,26.645-12.016,52.245-32.914,68.963H190.694C169.796,343.249,157.78,318.171,157.78,291.527z"/>
	<path style="fill:#3A2C51;" d="M247.118,155.167c-8.882,0-15.673-6.792-15.673-15.673V55.902c0-8.882,6.792-15.673,15.673-15.673
		s15.673,6.792,15.673,15.673v83.592C262.792,148.376,256,155.167,247.118,155.167z"/>
	<path style="fill:#3A2C51;" d="M478.563,303.02h-83.592c-8.882,0-15.673-6.792-15.673-15.673c0-8.882,6.792-15.673,15.673-15.673
		h83.592c8.882,0,15.673,6.792,15.673,15.673C494.237,296.229,487.445,303.02,478.563,303.02z"/>
	<path style="fill:#3A2C51;" d="M99.265,303.02H15.673C6.792,303.02,0,296.229,0,287.347c0-8.882,6.792-15.673,15.673-15.673h83.592
		c8.882,0,15.673,6.792,15.673,15.673C114.939,296.229,108.147,303.02,99.265,303.02z"/>
	<path style="fill:#3A2C51;" d="M352.131,198.008c-4.18,0-7.837-1.567-10.971-4.702c-6.269-6.269-6.269-16.196,0-21.943
		l59.037-59.037c6.269-6.269,16.196-6.269,21.943,0c6.269,6.269,6.269,16.196,0,21.943l-59.037,59.037
		C359.967,196.441,356.31,198.008,352.131,198.008z"/>
	<path style="fill:#3A2C51;" d="M142.106,198.008c-4.18,0-7.837-1.567-10.971-4.702l-59.037-59.037
		c-6.269-6.269-6.269-16.196,0-21.943c6.269-6.269,16.196-6.269,21.943,0l59.037,59.037c6.269,6.269,6.269,16.196,0,21.943
		C149.943,196.441,146.286,198.008,142.106,198.008z"/>
</g>
<g>
</g>
<g>
</g>
<g>
</g>
<g>
</g>
<g>
</g>
<g>
</g>
<g>
</g>
<g>
</g>
<g>
</g>
<g>
</g>
<g>
</g>
<g>
</g>
<g>
</g>
<g>
</g>
<g>
</g>
</svg>
